<?xml version="1.0" encoding="UTF-8"?><svg id="Layer_1" xmlns="http://www.w3.org/2000/svg" viewBox="0 0 500 500"><defs><style>.cls-1{fill:#69e0a2;}.cls-2{fill:#f0457d;}.cls-3{fill:none;stroke:#fff;stroke-linecap:round;stroke-linejoin:round;stroke-width:10px;}.cls-4{fill:#24285b;}.cls-5{fill:#ffd44d;}.cls-6{fill:#0099f5;}</style></defs><path class="cls-6" d="M448.47,102.76H53.11c-1.1,.08-2.2,0-3.27-.25v-25.41c1.07-.24,2.17-.32,3.27-.24H448.47c1.1-.08,2.2,0,3.27,.24v25.43c-1.07,.24-2.17,.32-3.27,.23Z"/><polygon class="cls-4" points="451.16 422.91 49.26 423.16 49.84 102.92 451.16 102.66 451.16 422.91"/><path class="cls-1" d="M105.57,89.89c0,3.04-2.46,5.5-5.5,5.5s-5.5-2.46-5.5-5.5,2.46-5.5,5.5-5.5,5.5,2.46,5.5,5.5Z"/><path class="cls-2" d="M72.23,89.89c0,3.04-2.46,5.5-5.5,5.5s-5.5-2.46-5.5-5.5,2.46-5.5,5.5-5.5,5.5,2.46,5.5,5.5Z"/><path class="cls-5" d="M88.23,89.89c0,3.04-2.46,5.5-5.5,5.5s-5.5-2.46-5.5-5.5,2.46-5.5,5.5-5.5,5.5,2.46,5.5,5.5Z"/><g><line class="cls-3" x1="89.2" y1="160.2" x2="89.2" y2="211.73"/><line class="cls-3" x1="220.36" y1="160.2" x2="220.36" y2="211.73"/><line class="cls-3" x1="243.14" y1="160.2" x2="243.14" y2="211.73"/><line class="cls-3" x1="265.92" y1="160.2" x2="265.92" y2="211.73"/><line class="cls-3" x1="288.69" y1="160.2" x2="288.69" y2="211.73"/><line class="cls-3" x1="311.47" y1="160.2" x2="311.47" y2="211.73"/><line class="cls-3" x1="334.25" y1="160.2" x2="334.25" y2="211.73"/><rect class="cls-3" x="111.98" y="160.2" width="31.41" height="51.53" rx="11.03" ry="11.03"/><rect class="cls-3" x="166.17" y="160.2" width="31.41" height="51.53" rx="11.03" ry="11.03"/><line class="cls-3" x1="89.2" y1="237.15" x2="89.2" y2="288.67"/><rect class="cls-3" x="112.76" y="237.15" width="31.41" height="51.53" rx="11.03" ry="11.03"/><line class="cls-3" x1="89.2" y1="314.09" x2="89.2" y2="365.62"/><rect class="cls-3" x="111.98" y="314.09" width="31.41" height="51.53" rx="11.03" ry="11.03"/><rect class="cls-3" x="167.74" y="237.15" width="31.41" height="51.53" rx="11.03" ry="11.03"/><rect class="cls-3" x="222.72" y="237.15" width="31.41" height="51.53" rx="11.03" ry="11.03"/><rect class="cls-3" x="277.7" y="237.15" width="31.41" height="51.53" rx="11.03" ry="11.03"/><line class="cls-3" x1="411.22" y1="160.2" x2="411.22" y2="211.73"/><rect class="cls-3" x="357.03" y="160.2" width="31.41" height="51.53" rx="11.03" ry="11.03"/><line class="cls-3" x1="166.17" y1="314.09" x2="166.17" y2="365.62"/><line class="cls-3" x1="188.95" y1="314.09" x2="188.95" y2="365.62"/><line class="cls-3" x1="211.73" y1="314.09" x2="211.73" y2="365.62"/><line class="cls-3" x1="234.5" y1="314.09" x2="234.5" y2="365.62"/><line class="cls-3" x1="257.28" y1="314.09" x2="257.28" y2="365.62"/><line class="cls-3" x1="280.06" y1="314.09" x2="280.06" y2="365.62"/><line class="cls-3" x1="411.22" y1="314.09" x2="411.22" y2="365.62"/><rect class="cls-3" x="302.84" y="314.09" width="31.41" height="51.53" rx="11.03" ry="11.03"/><rect class="cls-3" x="357.03" y="314.09" width="31.41" height="51.53" rx="11.03" ry="11.03"/><line class="cls-3" x1="332.68" y1="237.15" x2="332.68" y2="288.67"/><line class="cls-3" x1="411.22" y1="237.15" x2="411.22" y2="288.67"/><rect class="cls-3" x="356.24" y="237.15" width="31.41" height="51.53" rx="11.03" ry="11.03"/></g></svg>